# xmcd CD database file
#
# Track frame offsets:
#	150
#	14970
#	28667
#	43651
#	57723
#	71649
#	84505
#	98097
#	114630
#	129595
#	143657
#	156249
#	167973
#	181769
#	195770
#	214917
#	235563
#	247734
#	262328
#	276508
#	290929
#	304986
#	324378
#
# Disc length: 4509 seconds
#
# Revision: 0
# Processed by: cddbd v1.5.2PL0 Copyright (c) Steve Scherf et al.
# Submitted via: CDex 1.51
#
DISCID=5f119b17
DTITLE=Coleman Hawkins - Bouncing with Bean
DYEAR=1900
DGENRE=Jazz
TTITLE0=The Stampers - 14/5/1926
TTITLE1=Miss Hannah - 6/11/1929
TTITLE2=Hello Lola - 14/11/1929
TTITLE3=Sugar Foot Stomp - 29/04/1931
TTITLE4=Sweet Sorrow Blues - 18/04/1933
TTITLE5=Queer Notions - 18/08/1933
TTITLE6=Jamaïca Shout - 29/09/1933
TTITLE7=The day You Came Along - 29/09/1933
TTITLE8=Hocus Pocus - 6/03/1934
TTITLE9=Lost In A Fog - 18/11/1934
TTITLE10=Honeysuclerose - 28/04/1937
TTITLE11=Meet Doctor Foo - 18/10/1939
TTITLE12=Body and Soul - 11/10/1939
TTITLE13=Bouncing With Beans - 3/01/1940
TTITLE14=I can't Believe That You're in Love With Med - 25/05/1940
TTITLE15=I Surrender Dear - 25/05/1940
TTITLE16=Smack -25/05/1940
TTITLE17=Feedin' The "Bean" - 10/04/1941
TTITLE18=My Ideal - 4/12/1943
TTITLE19=Boff  Boff - 4/12/1943
TTITLE20=Voodte - 8/12/1943
TTITLE21=Sweet Lorraine - 23/12/1943
TTITLE22=Buh De Daht - 16/02/1944
EXTD=
EXTT0=
EXTT1=
EXTT2=
EXTT3=
EXTT4=
EXTT5=
EXTT6=
EXTT7=
EXTT8=
EXTT9=
EXTT10=
EXTT11=
EXTT12=
EXTT13=
EXTT14=
EXTT15=
EXTT16=
EXTT17=
EXTT18=
EXTT19=
EXTT20=
EXTT21=
EXTT22=
PLAYORDER=
